<svg xmlns="http://www.w3.org/2000/svg" width="431.142" height="779.295"><path d="M358.024 335.596c-19.138-21.411-38.88-42.723-50.931-69.163-14.953-21.423-30.69-42.98-41.226-66.896-2.78-12.576-5.051-18.144-7.115-2.097-3.712 22.174-10.446 45.318-4.69 67.587 9.811 16.208 18.924 32.92 21.055 52.098 6.956 29.395 10.492 59.853 3.983 89.825-6.763 31.14-12.976 62.627-19.93 93.587-2.703 27.68 3.302 55.275.423 82.865-2.083 11.387-6.124 22.356-1.784 33.662 3.484 14.144 1.685 29.978 6.635 43.326 8.69 7.23 19.344 16.934 13.66 29.454-6.05 21.894 12.888 41.59 10.083 63.73 3.665 16.762-20.027 23.691-28.938 10.36-7.697-9.46-12.171-22.503-14.125-34.094.154-17.113 6.333-34.757-3.236-50.483-2.22-13.637-5.335-19.459-9.545-2.673-9.684 19.151-3.577 41.08-9 61.187.024 14.067 2.534 32.957-13.75 39.094-8.297-1.264-14.854 1.465-22.82 1.655-7.35 1.063-17.676-2.62-11.196-13.766 4.552-14.922 13.588-28.412 16.124-44.155 3.538-13.363 6.949-26.378 12.999-38.817 4.559-30.79 4.195-62.408 4.512-93.444-4.648-16.17-12.998-31.122-16.85-47.636-4.351-18.565 1.2-39.102-9.174-56.55-15.693-40.8-38.678-79.739-44.804-123.51-.515-18.434 5.635-35.854 8.819-53.67 1.174-20.7 13.14-40.929 6.671-61.701-5.915 15.584-8.696 33.01-21.924 44.362-20.357 23.407-38.338 49.755-63.95 67.794-9.379 4.276-22.37-.395-26.97 11.406-16.7 10.917-3.075-13.517 2.862-16.475-11.329-4.187-20.424 7.452-32.157 4.828-14.51 3.096-15.384-6.809-.173-6.384 13.91-2.37 25.926-12.294 40.885-9.756 16.18 3.517 22.066-15.677 31.002-25.3 14.511-19.864 22.356-43.442 35.786-63.88 12.264-30.05 16.674-63.055 18.325-95.336-.709-11.389 1.219-28.462 16.877-26.79 13.127-.888 27.317-1.58 32.19-17.394 3.672-10.844-3.907-20.4-6.503-30.294 1.602-8.404-14.686-9.18-10.142-22.858-10.703-21.66 5.588-46.268 23.736-56.61 15.352-2.197 35.686-6.193 45.875 8.75 7.867 21.395 15.057 46.827.906 67.343-9.255.942-10.876 15.257-13.219 23.031-3.155 20.936 22.911 23.155 38.731 22.638 16.536 1.653 17.143 21.81 22.802 33.89 9.458 31.416 22.617 62.809 45.624 86.847 8.88 26.662 18.098 53.729 35.125 76.438 14.093-.372 28.81-.578 40.687 8.406 10.36-1.322 33.45 8.847 10.719 7.844-11.355 2.513-19.994-6.095-30.724-5.531-11.31-.75 20.5 22.393 2.693 19.468-6.514-7.914-13.482-12.612-24.224-12.093-3.793-.865-7.425-1.933-10.69-4.119z" stroke="#000"/></svg>